<?xml version="1.0" encoding="UTF-8"?>
<svg width="30px" height="30px" viewBox="0 0 30 30" version="1.1" xmlns="http://www.w3.org/2000/svg" xmlns:xlink="http://www.w3.org/1999/xlink">
    <!-- Generator: Sketch 51.1 (57501) - http://www.bohemiancoding.com/sketch -->
    <title>flight_icon</title>
    <desc>Created with Sketch.</desc>
    <defs></defs>
    <g id="Page-1" stroke="none" stroke-width="1" fill="none" fill-rule="evenodd">
        <g id="Desktop-HD" transform="translate(-836.000000, -1074.000000)" fill="#E0C182" fill-rule="nonzero">
            <g id="flight_icon" transform="translate(836.000000, 1074.000000)">
                <path d="M19.320696,24.063615 C17.321141,20.188663 15.594219,17.386351 15.55624,17.347495 C15.511898,17.302132 14.523659,18.386144 12.669266,20.250208 C9.960192,22.973412 9.654613,23.041455 9.655659,23.280246 C9.65627,23.420251 9.791492,24.473983 9.926961,25.592526 L10.173267,27.62624 L9.002608,28.808455 L7.831949,29.990668 L6.473433,27.390474 L5.11492,24.790281 L2.558252,23.44822 C1.152086,22.710086 0.000872,22.089434 9.99999998e-07,22.068991 C-0.00087,22.048549 0.515431,21.512754 1.147337,20.878334 L2.296257,19.724844 L4.549914,19.999867 L6.873581,20.345282 L9.792108,17.410844 C12.068456,15.122929 12.774993,14.547469 12.69629,14.490828 C12.640781,14.450881 10.391525,12.617891 6.473433,10.540773 L9.99999998e-07,7.325417 L1.471169,5.846229 L2.942338,4.367041 L9.92793,6.093354 L18.719581,8.434699 L22.736395,4.395985 C25.554669,1.56799 26.860138,0.318004 27.08799,0.203109 C27.297835,0.097293 27.593341,0.027346 27.921643,0.00578 C28.567542,-0.036649 29.048195,0.153169 29.475723,0.61951 C29.873008,1.052863 30.001756,1.379752 29.999982,1.950601 C29.997243,2.832317 30.043029,2.768847 25.527777,7.321593 L21.452057,11.419534 L23.219646,18.256629 C24.186554,22.011736 24.663924,24.32153 24.921454,25.325576 L25.38969,27.151114 L23.927095,28.620371 C22.840379,29.712035 22.448378,30.064195 22.401768,29.990668 C22.367266,29.936241 21.320252,27.938565 19.320696,24.063615 Z"></path>
            </g>
        </g>
    </g>
</svg>