<?xml version="1.0" encoding="UTF-8"?>
<svg width="38px" height="30px" viewBox="0 0 38 30" version="1.1" xmlns="http://www.w3.org/2000/svg" xmlns:xlink="http://www.w3.org/1999/xlink">
    <!-- Generator: Sketch 51.1 (57501) - http://www.bohemiancoding.com/sketch -->
    <title>Combined Shape</title>
    <desc>Created with Sketch.</desc>
    <defs></defs>
    <g id="Page-1" stroke="none" stroke-width="1" fill="none" fill-rule="evenodd">
        <g id="Desktop-HD" transform="translate(-766.000000, -1073.000000)" fill="#E0C182" fill-rule="nonzero">
            <g id="ic_host_address_verification_icon" transform="translate(657.000000, 1071.000000)">
                <path d="M124.399738,18.0308574 C126.286416,21.6601255 128.807992,25.4109707 130.523564,27.6668792 C132.896548,24.5464285 139.137449,15.2391121 139.137449,10.8263553 C139.137449,2.97794896 129.839136,-0.939498567 124.435759,4.58095152 C122.873282,6.17494756 121.90968,8.38132679 121.90968,10.8263553 C121.90968,12.6049666 122.963339,15.2661299 124.399738,18.0308574 Z M132.527317,7.89051989 C133.60349,8.90365306 133.65302,10.7723212 132.527317,11.8935218 C130.753208,13.6676307 127.691294,12.4203506 127.691294,9.89427166 C127.691294,7.37719923 130.748706,6.11190775 132.527317,7.89051989 Z M110.275525,19.0870105 L118.70643,31.7876612 L109,31.7876612 L110.275525,19.0870105 Z M139.068157,28.6951965 L145.896877,28.6951965 L146.285758,31.7876612 L141.914754,31.7876612 L139.068157,28.6951965 Z M137.865224,21.2188879 L140.188129,16.9944289 L144.818386,16.9944289 L145.207266,21.2188879 L137.865224,21.2188879 Z M136.008972,24.1465357 C136.242299,23.7977732 136.470441,23.4440955 136.703771,23.0904214 L145.378374,23.0904214 L145.725773,26.8236649 L137.813374,26.8236649 L136.008972,24.1465357 Z M123.751492,22.7121849 C125.856627,26.0229826 128.122497,29.0488742 129.569129,30.7435689 C129.958007,31.2102239 130.709841,31.2298708 131.114277,30.7583041 C132.078697,29.6235947 133.421627,27.8896026 134.83715,25.8657925 L139.586661,31.7876612 L120.977486,31.7876612 L118.042743,28.1008254 L123.751492,22.7121849 Z M120.505646,16.9944289 L122.724851,21.0518742 L117.026471,26.4306896 L111.271056,16.9944289 L120.505646,16.9944289 Z" id="Combined-Shape"></path>
            </g>
        </g>
    </g>
</svg>