<?xml version="1.0" encoding="UTF-8"?>
<svg width="28px" height="30px" viewBox="0 0 28 30" version="1.1" xmlns="http://www.w3.org/2000/svg" xmlns:xlink="http://www.w3.org/1999/xlink">
    <!-- Generator: Sketch 51.1 (57501) - http://www.bohemiancoding.com/sketch -->
    <title>Combined Shape</title>
    <desc>Created with Sketch.</desc>
    <defs></defs>
    <g id="Page-1" stroke="none" stroke-width="1" fill="none" fill-rule="evenodd">
        <g id="Desktop-HD" transform="translate(-657.000000, -1071.000000)" fill="#E0C182">
            <g id="ic_host_address_verification_icon" transform="translate(657.000000, 1071.000000)">
                <g id="Double-Bed">
                    <g id="amenity_room_service">
                        <path d="M6.57996022,12.9585077 C6.53767556,13.2846697 6.51787937,13.6075852 6.49808318,13.9300256 C5.91710455,13.9300256 5.32416903,13.9300256 4.71001199,13.9301048 C4.68926558,13.6549377 4.67920911,13.3789788 4.67920911,13.0988231 C4.67920911,7.79494832 8.5432673,3.42664154 13.5164665,2.84795928 C13.1945012,2.54753228 12.992105,2.12254764 12.992105,1.64775579 C12.992105,0.736972613 13.7308197,0 14.6407318,0 C15.5496937,0 16.2875374,0.736972613 16.2857161,1.64775579 C16.2857161,2.12159742 16.0823696,2.54761146 15.7612754,2.84795928 C20.7348705,3.42664154 24.5999581,7.79494832 24.5999581,13.0988231 C24.5999581,13.3798498 24.5880012,13.6595304 24.5668589,13.9355685 C18.2692153,13.9355685 13.7685116,13.931926 7.95349917,13.9309758 C7.97836318,13.6614309 7.99815937,13.3937072 8.03949382,13.1282798 C8.0988824,12.3964542 8.23642633,11.6847416 8.37674174,10.9869654 C8.47010058,10.6474211 8.55562012,10.3066099 8.63290445,9.96944116 C8.74613867,9.64517955 8.85691816,9.32408532 8.96643069,9.00758382 C9.23336253,8.40269139 9.48952525,7.80650929 9.83223691,7.29861821 C9.91229271,7.1666172 9.99139829,7.03738767 10.0677324,6.90855405 C10.1621206,6.79167734 10.2536582,6.67670106 10.3428995,6.56259581 C10.5265289,6.33858211 10.6772967,6.09524733 10.8714578,5.90156139 C11.2597007,5.52242473 11.5862587,5.12681764 11.9469453,4.85085874 C12.2929035,4.5615176 12.5835908,4.27906554 12.8578076,4.10010797 C13.3885831,3.7090936 13.6922567,3.46805518 13.6922567,3.46805518 C13.6922567,3.46805518 13.3361628,3.59498835 12.7087027,3.84750857 C12.3885587,3.9606636 12.0334942,4.16115943 11.6194371,4.39214139 C11.1898597,4.60008058 10.7678841,4.93590317 10.2909543,5.28914641 C10.0516579,5.46121491 9.84379789,5.69583937 9.6041056,5.91248889 C9.49055465,6.02659413 9.37272772,6.14069938 9.25497997,6.25844713 C9.15188141,6.39044813 9.04656567,6.52197403 8.94029971,6.65769671 C8.49274742,7.18443378 8.11780755,7.81371511 7.78246007,8.48718154 C7.63430538,8.83218956 7.48575476,9.1854328 7.33395756,9.54057647 C7.2152596,9.90443047 7.10210457,10.2765989 6.99765986,10.65336 C6.82606647,11.4087035 6.65811559,12.1851893 6.57996022,12.9585077 Z M1.28825073,16.092668 C1.28825073,15.5404877 1.73971968,15.0928571 2.29197337,15.0928571 L26.2954902,15.0928571 C26.8498309,15.0928571 27.2992128,15.5352972 27.2992128,16.092668 L27.2992128,16.3877402 C27.2992128,16.9399205 26.8477439,17.387551 26.2954902,17.387551 L2.29197337,17.387551 C1.73763266,17.387551 1.28825073,16.945111 1.28825073,16.3877402 L1.28825073,16.092668 Z M22.6207872,20.0164723 C23.9479592,19.3732653 24.4998542,20.9544315 23.8179883,21.4086297 C23.1330612,21.8649271 17.4138192,25.7773469 16.4748105,25.9633819 C15.5363265,26.1473178 8.62250729,25.9633819 7.82431487,25.9633819 C7.02909621,25.9633819 6.23186589,27.3281633 6.23186589,27.3281633 L5.20705539,20.841691 L9.07932945,19.4474344 C9.07932945,19.4474344 14.9108746,19.2066472 15.5799708,19.2066472 C16.2491545,19.2066472 16.7755977,20.5713411 15.565277,20.841691 C14.3570554,21.1130029 11.2402915,21.9798542 11.2402915,21.9798542 L16.6891837,22.3212245 C16.6891837,22.3212245 21.2987755,20.6587172 22.6207872,20.0164723 Z M0,21.538863 L4.44848397,20.7562391 L5.93265306,28.8362099 L0,29.9469971 L0,21.538863 Z" id="Combined-Shape"></path>
                    </g>
                </g>
            </g>
        </g>
    </g>
</svg>