<?xml version="1.0" encoding="UTF-8"?>
<svg width="23px" height="22px" viewBox="0 0 23 22" version="1.1" xmlns="http://www.w3.org/2000/svg" xmlns:xlink="http://www.w3.org/1999/xlink">
    <!-- Generator: Sketch 51.1 (57501) - http://www.bohemiancoding.com/sketch -->
    <title>noun_Search_1184767</title>
    <desc>Created with Sketch.</desc>
    <defs></defs>
    <g id="Page-1" stroke="none" stroke-width="1" fill="none" fill-rule="evenodd">
        <g id="Desktop-HD" transform="translate(-955.000000, -785.000000)" fill="#000000" fill-rule="nonzero">
            <g id="noun_Search_1184767" transform="translate(955.000000, 785.000000)">
                <path d="M10.1084999,19.1052631 C12.2589999,19.1052631 14.2576999,18.3665262 15.8515999,17.1437894 L20.2284999,21.5507367 C20.4814999,21.8054736 20.8103999,21.932842 21.1139999,21.932842 C21.4175999,21.932842 21.7717999,21.8054736 21.9994999,21.5507367 C22.5054999,21.041263 22.5054999,20.2515788 21.9994999,19.7421052 L17.6478999,15.3351578 C18.8622999,13.7303157 19.5959999,11.7178947 19.5959999,9.55263153 C19.5959999,4.27957892 15.3455999,0 10.1084999,0 C4.87139997,0 0.62099999,4.27957892 0.62099999,9.55263153 C0.62099999,14.8256841 4.87139997,19.1052631 10.1084999,19.1052631 Z M10.1084999,2.54736841 C13.9287999,2.54736841 17.0659999,5.68063155 17.0659999,9.55263153 C17.0659999,13.4246315 13.9287999,16.5578946 10.1084999,16.5578946 C6.28819996,16.5578946 3.15099998,13.3991578 3.15099998,9.55263153 C3.15099998,5.70610523 6.26289996,2.54736841 10.1084999,2.54736841 Z" id="Shape"></path>
            </g>
        </g>
    </g>
</svg>