<?xml version="1.0" encoding="UTF-8"?>
<svg width="22px" height="23px" viewBox="0 0 22 23" version="1.1" xmlns="http://www.w3.org/2000/svg" xmlns:xlink="http://www.w3.org/1999/xlink">
    <!-- Generator: Sketch 51.1 (57501) - http://www.bohemiancoding.com/sketch -->
    <title>Group 4</title>
    <desc>Created with Sketch.</desc>
    <defs></defs>
    <g id="Page-1" stroke="none" stroke-width="1" fill="none" fill-rule="evenodd">
        <g id="Desktop-HD" transform="translate(-995.000000, -785.000000)" fill="#000000" fill-rule="nonzero">
            <g id="Group-4" transform="translate(995.000000, 785.000000)">
                <path d="M13.1345005,12.5135509 L13.1345005,17.0955566 C13.1345005,17.2817009 13.0726707,17.4625726 12.9587221,17.6097644 L9.69754565,21.8223495 C9.41355654,22.189189 8.88595572,22.2563525 8.51911623,21.9723634 C8.31361564,21.8132749 8.19332398,21.5680256 8.19332398,21.3081417 L8.19332398,12.5390647 L8.17432308,12.5390647 L0.537674238,1.31244831 C0.442899198,1.17311978 0.39221914,1.00850742 0.39221914,0.840000019 C0.39221914,0.376080819 0.768299959,-5.68793915e-15 1.23221916,-5.77315973e-15 L20.7808098,-7.88258347e-15 C20.9615895,-8.71861517e-15 21.1375457,0.0583218162 21.2825353,0.166300108 C21.6546095,0.443395442 21.7316051,0.969651317 21.4545097,1.3417255 L13.1345005,12.5135509 Z" id="Combined-Shape"></path>
            </g>
        </g>
    </g>
</svg>