<?xml version="1.0" encoding="UTF-8"?>
<svg width="26px" height="38px" viewBox="0 0 26 38" version="1.1" xmlns="http://www.w3.org/2000/svg" xmlns:xlink="http://www.w3.org/1999/xlink">
    <!-- Generator: Sketch 51.1 (57501) - http://www.bohemiancoding.com/sketch -->
    <title>noun_Scroll_1264502</title>
    <desc>Created with Sketch.</desc>
    <defs></defs>
    <g id="Page-1" stroke="none" stroke-width="1" fill="none" fill-rule="evenodd">
        <g id="Desktop-HD" transform="translate(-707.000000, -751.000000)" fill="#FFFFFF" fill-rule="nonzero">
            <g id="noun_Scroll_1264502" transform="translate(707.000000, 751.000000)">
                <path d="M21.8115,24.6175 C21.8115,29.4505 17.8795,33.3825 13.0465,33.3825 C8.2145,33.3825 4.2835,29.4505 4.2835,24.6175 L4.2835,13.7005 C4.2835,8.8675 8.2145,4.9355 13.0465,4.9355 C17.8795,4.9355 21.8115,8.8675 21.8115,13.7005 L21.8115,24.6175 Z M13.0465,0.9355 C6.0085,0.9355 0.2835,6.6615 0.2835,13.7005 L0.2835,24.6175 C0.2835,31.6565 6.0085,37.3825 13.0465,37.3825 C20.0845,37.3825 25.8115,31.6565 25.8115,24.6175 L25.8115,13.7005 C25.8115,6.6615 20.0845,0.9355 13.0465,0.9355 Z" id="Shape"></path>
                <path d="M12.9561,22.4808 C11.8521,22.4808 10.9561,23.3768 10.9561,24.4808 L10.9561,27.3548 C10.9561,28.4588 11.8521,29.3548 12.9561,29.3548 C14.0601,29.3548 14.9561,28.4588 14.9561,27.3548 L14.9561,24.4808 C14.9561,23.3768 14.0601,22.4808 12.9561,22.4808" id="Shape"></path>
            </g>
        </g>
    </g>
</svg>