<svg width="442" height="190" xmlns="http://www.w3.org/2000/svg"><defs><linearGradient x1="45.079%" y1="50%" x2="63.063%" y2=".882%" id="a"><stop stop-opacity="0" offset="0%"/><stop stop-opacity=".35" offset="100%"/></linearGradient><linearGradient x1="42699%" y1="15629.228%" x2="48972%" y2="16842.281%" id="b"><stop stop-color="#FFF" stop-opacity="0" offset="2%"/><stop stop-color="#FFF" stop-opacity="0" offset="65%"/><stop stop-color="#DFDFE0" stop-opacity=".17" offset="71%"/><stop stop-color="#88898A" stop-opacity=".62" offset="91%"/><stop stop-color="#666769" stop-opacity=".8" offset="100%"/></linearGradient><linearGradient x1="54.416%" y1="37.623%" x2="91.845%" y2="81.16%" id="c"><stop stop-opacity="0" offset="0%"/><stop stop-opacity=".35" offset="100%"/></linearGradient><linearGradient x1="50%" y1="0%" x2="50%" y2="100%" id="d"><stop stop-opacity=".35" offset="0%"/><stop stop-opacity="0" offset="100%"/></linearGradient></defs><g fill="none" fill-rule="evenodd"><g fill-rule="nonzero" fill="#EA2330"><path d="M271.06 133.68c4.47-.78 8.89 3.13 9.87 8.77.98 5.64-1.84 10.9-6.31 11.68h-.13a81 81 0 0 1-14.22 1.38c-9.95 0-18-2.39-24.2-7.19-8-6.14-12.22-15.81-12.22-27.94V8.21c0-4.53 4.65-8.21 10.38-8.21s10.38 3.68 10.38 8.21v112.21c0 5.52 1.38 9.37 4.11 11.47 2.46 1.89 8.44 4.3 22.16 1.83l.18-.04zM61.22 145.73c-3.76 0-7.32-5.52-9.16-9.1-9.65-18.74-17-33.7-22.87-45.72-12-24.55-18.51-36.23-23.91-40.39-5.4-4.16-6.5-9.57-3.92-14.35a10.12 10.12 0 0 1 13.89-3.85c11.56 6.57 17.58 18.85 32.58 49.47 5.82 11.88 13.06 26.66 22.55 45.09 2.35 4.56 4 13.75-.11 16.79l-9.05 2.06z"/><path d="M304.28 101.24c-.028-27.248-22.112-49.328-49.36-49.35h-43.63c-4.54 0-8.21-4.65-8.21-10.38s3.67-10.38 8.21-10.38h43.63c38.715 0 70.1 31.385 70.1 70.1v46.19c0 4.53-4.65 8.21-10.38 8.21s-10.38-3.68-10.38-8.21l.02-46.18zM179.82 114.31v1.11c0 11.83-9.6 19.49-24.63 19.49s-24.73-7.64-24.73-19.47c0-11.83 9.71-19.51 24.73-19.51h.91c15.66 0 42.71 7.21 44.57 7.82V84.01c-10-3.52-26-8.82-44.57-8.82h-.91c-27.82 0-45.49 18.05-45.49 40.26 0 22.21 17.67 40.21 45.49 40.21s45.49-18 45.49-40.21v-1l-.09-43.08c0-22.21-21.45-40.21-45.4-40.21l-4-.06c-31.64 0-56.42 8.56-74.52 50.34-1.48 3.41-2.88 6.8-4.24 10.17l-.2.48c-4.33 10.69-6.87 18.55-13.12 33-11.68 27-22.16 42.77-38.11 43.69-8.65.5-10.77 6.26-9.69 12S15.97 190 21 190c26 0 42.25-23.92 57.82-58l.19-.44c2.37-5.54 4.64-11.3 7-17.27 3.1-8 6.31-16.32 9.87-24.54 13.83-31.92 29.49-37.82 55.36-37.82h4c11.09 0 24.63 7.64 24.63 19.45v42.81"/><path d="M421.03 114.31v1.11c0 11.83-9.72 19.49-24.75 19.49s-24.73-7.64-24.73-19.47c0-11.83 9.71-19.51 24.73-19.51h.92c15.66 0 42.71 7.21 44.58 7.82V84.01c-10-3.52-26.05-8.82-44.58-8.82h-.92c-27.82 0-45.49 18.05-45.49 40.26 0 22.21 17.67 40.21 45.49 40.21s45.49-18 45.49-40.21v-1l-.09-43.08c0-22.21-21.45-40.14-45.4-40.14 0 0-7.46-.07-9-.07-51.13 0-83 33.34-83 79.43h20.76c0-34.58 22.61-58.68 62.21-58.68 1.83 0 7.6.08 7.6.08 14.9 0 26.18 7.55 26.18 19.37v43-.05z"/></g><g style="mix-blend-mode:multiply" opacity=".7"><path d="M150.82 67.87v16.55c0 9.26-5.9 15.94-15.67 18.42v21.14c22.59-3.43 36.53-19.82 36.53-39.54V72.78c-2.41-.63-14.95-3.45-20.86-4.91zM392.03 67.87v16.55c0 9.26-6 16-15.78 18.45v21.12c22.59-3.43 36.53-19.82 36.53-39.54V72.79c-2.42-.64-14.86-3.46-20.75-4.92z" fill="url(#a)" fill-rule="nonzero" style="mix-blend-mode:multiply" transform="translate(29 31)"/><path d="M231.14.35v20.82c25.082 2.69 44.11 23.844 44.14 49.07v2.54h.26a80.29 80.29 0 0 1 11.48-36.93A70.1 70.1 0 0 0 231.14.35z" fill="url(#b)" fill-rule="nonzero" style="mix-blend-mode:multiply" transform="translate(29 31)"/><path d="M.19 59.92c5.89 12 13.22 27 22.87 45.72.27.53.58 1.1.93 1.69 2-4.06 4.07-8.49 6.14-13.28 1.82-4.19 3.31-7.81 4.64-11.12-6.36-12.57-11.55-23.18-15.94-32.13L.19 59.92z" fill="url(#c)" fill-rule="nonzero" style="mix-blend-mode:multiply" transform="translate(29 31)"/><path fill="url(#d)" d="M194.85 20.89h20.76v20h-20.76z" transform="translate(29 31)"/></g></g></svg>